# xmcd CD database file
# Copyright (C) 1997 Ti Kan
# 
# Track frame offsets:
#     150
#     20550
#     34425
#     53327
#     66240
#     76650
#     94205
#     104585
#     119340
#     133162
#     150292
# 
# Disc length: 2216 seconds
# 
# Revision: 1
# Processed by: cddbd v1.4b41PL1 Copyright (c) Steve Scherf et al.
# Submitted via: DiscPlay 4.0.2
# 
DISCID=8a08a60b
DTITLE=Mike Cross - Prodigal Son
DYEAR=1900
DGENRE=
TTITLE0=Betrayal By Fear
TTITLE1=Prodigal Son
TTITLE2=Angel In the Southern Part Of Heaven
TTITLE3=Runnin' Hoss
TTITLE4=The Old Grey Owl
TTITLE5=The Wrong Side Of Midnight
TTITLE6=Road Trip Blues
TTITLE7=The Old Man's Bouquet
TTITLE8=Bill Is In His Grave
TTITLE9=A Song For Merle
TTITLE10=Autumn Is In Her Eyes
EXTD=
EXTT0=
EXTT1=
EXTT2=
EXTT3=
EXTT4=
EXTT5=
EXTT6=
EXTT7=
EXTT8=
EXTT9=
EXTT10=
PLAYORDER=
